<svg width="100" height="100" viewBox="0 0 100 100" xmlns="http://www.w3.org/2000/svg">
  <defs>
    <linearGradient id="lionGradient" x1="0%" y1="0%" x2="100%" y2="100%">
      <stop offset="0%" style="stop-color:#D2691E;stop-opacity:1" />
      <stop offset="100%" style="stop-color:#8B4513;stop-opacity:1" />
    </linearGradient>
    <linearGradient id="maneGradient" x1="0%" y1="0%" x2="100%" y2="100%">
      <stop offset="0%" style="stop-color:#CD853F;stop-opacity:1" />
      <stop offset="100%" style="stop-color:#A0522D;stop-opacity:1" />
    </linearGradient>
  </defs>
  
  <!-- Mane -->
  <circle cx="50" cy="45" r="35" fill="url(#maneGradient)" />
  
  <!-- Mane details -->
  <path d="M25 30 Q15 25 20 20 Q25 25 30 28" fill="#8B4513" />
  <path d="M75 30 Q85 25 80 20 Q75 25 70 28" fill="#8B4513" />
  <path d="M50 15 Q45 10 50 8 Q55 10 50 15" fill="#8B4513" />
  <path d="M30 60 Q20 65 25 70 Q30 65 35 62" fill="#8B4513" />
  <path d="M70 60 Q80 65 75 70 Q70 65 65 62" fill="#8B4513" />
  
  <!-- Face -->
  <ellipse cx="50" cy="50" rx="25" ry="28" fill="url(#lionGradient)" />
  
  <!-- Eyes -->
  <ellipse cx="42" cy="45" rx="4" ry="5" fill="#333" />
  <ellipse cx="58" cy="45" rx="4" ry="5" fill="#333" />
  <ellipse cx="43" cy="43" rx="1.5" ry="2" fill="#FFF" />
  <ellipse cx="59" cy="43" rx="1.5" ry="2" fill="#FFF" />
  
  <!-- Nose -->
  <path d="M50 55 L45 50 Q50 48 55 50 Z" fill="#8B4513" />
  <ellipse cx="50" cy="53" rx="2" ry="1.5" fill="#654321" />
  
  <!-- Mouth -->
  <path d="M50 58 Q45 62 40 60 Q45 65 50 63 Q55 65 60 60 Q55 62 50 58" fill="#8B4513" stroke="#654321" stroke-width="1" />
  
  <!-- Whiskers -->
  <line x1="25" y1="52" x2="35" y2="54" stroke="#333" stroke-width="1.5" />
  <line x1="25" y1="58" x2="35" y2="58" stroke="#333" stroke-width="1.5" />
  <line x1="65" y1="54" x2="75" y2="52" stroke="#333" stroke-width="1.5" />
  <line x1="65" y1="58" x2="75" y2="58" stroke="#333" stroke-width="1.5" />
  
  <!-- Ears -->
  <ellipse cx="35" cy="35" rx="8" ry="12" fill="url(#lionGradient)" transform="rotate(-30 35 35)" />
  <ellipse cx="65" cy="35" rx="8" ry="12" fill="url(#lionGradient)" transform="rotate(30 65 35)" />
  <ellipse cx="35" cy="35" rx="4" ry="6" fill="#CD853F" transform="rotate(-30 35 35)" />
  <ellipse cx="65" cy="35" rx="4" ry="6" fill="#CD853F" transform="rotate(30 65 35)" />
</svg>
